<svg xmlns="http://www.w3.org/2000/svg" viewBox="0 0 1024 1024" width="1024" height="1024">
  <g transform="translate(143.36 143.36) scale(0.72)">
  <g fill="#141210"><rect x="132" y="356" width="62" height="24" rx="12"/><rect x="830" y="356" width="62" height="24" rx="12"/><ellipse cx="116" cy="352" rx="30" ry="39"/><ellipse cx="908" cy="352" rx="30" ry="39"/></g>
  <path d="M 186 800 L 178 456 C 178 244 320 128 512 128 C 704 128 846 244 846 456 L 838 800 Z M 300 246 H 724 C 762 246 780 266 784 300 L 806 586 C 809 620 790 638 754 638 H 270 C 234 638 215 620 218 586 L 240 300 C 244 266 262 246 300 246 Z" fill="#141210" fill-rule="evenodd"/>
  <path d="M 300 246 H 724 C 762 246 780 266 784 300 L 806 586 C 809 620 790 638 754 638 H 270 C 234 638 215 620 218 586 L 240 300 C 244 266 262 246 300 246 Z" fill="#FFC531"/>
  <g transform="translate(384.57 577.45) scale(0.31858)"><path d="M670 -512V0H536V-512H461V-622H764V-512ZM136 -149Q96 -149 66.0 -170.0Q36 -191 36 -234Q36 -269 58.0 -290.5Q80 -312 120 -312Q148 -312 181.5 -297.0Q215 -282 250 -250L266 -236Q298 -213 328.5 -183.5Q359 -154 387.0 -122.5Q415 -91 439 -60L340 8Q277 -73 227.5 -126.0Q178 -179 140 -210L141 -262Q186 -263 223.5 -283.0Q261 -303 283.5 -340.0Q306 -377 306 -429Q306 -482 283.0 -508.0Q260 -534 225 -534Q205 -534 193.0 -524.5Q181 -515 181 -497Q181 -487 185.5 -478.0Q190 -469 201.0 -461.5Q212 -454 231.0 -448.0Q250 -442 279 -439L251 -349Q150 -358 102.5 -400.0Q55 -442 55 -500Q55 -557 97.5 -594.5Q140 -632 221 -632Q279 -632 328.5 -610.0Q378 -588 408.5 -542.0Q439 -496 439 -425Q439 -349 401.5 -286.5Q364 -224 296.0 -186.5Q228 -149 136 -149Z M543 -615Q526 -674 509.5 -711.5Q493 -749 471.5 -766.5Q450 -784 416 -784Q397 -784 379.5 -780.0Q362 -776 348 -771L312 -876Q336 -886 361.5 -891.0Q387 -896 417 -896Q457 -896 491.0 -885.5Q525 -875 554.5 -846.0Q584 -817 610.5 -761.5Q637 -706 662 -615Z" fill="#141210"/></g>
  <g fill="#FFC531"><circle cx="512" cy="702" r="56"/><rect x="240" y="684" width="146" height="30" rx="15"/><rect x="638" y="684" width="146" height="30" rx="15"/></g>
  <g><circle cx="512" cy="852" r="74" fill="#141210"/><circle cx="512" cy="852" r="20" fill="#FFC531"/></g>
</g>
</svg>
